<mxfile host="65bd71144e">
    <diagram id="rUun1fWofJvkrLaqTgcw" name="Página-1">
        <mxGraphModel dx="1086" dy="795" grid="1" gridSize="10" guides="1" tooltips="1" connect="1" arrows="1" fold="1" page="1" pageScale="1" pageWidth="827" pageHeight="1169" math="0" shadow="0">
            <root>
                <mxCell id="0"/>
                <mxCell id="1" parent="0"/>
                <mxCell id="7" value="" style="edgeStyle=none;html=1;" parent="1" source="2" target="6" edge="1">
                    <mxGeometry relative="1" as="geometry"/>
                </mxCell>
                <mxCell id="2" value="Controle&lt;div&gt;de&lt;/div&gt;&lt;div&gt;dados&lt;/div&gt;" style="whiteSpace=wrap;html=1;aspect=fixed;" parent="1" vertex="1">
                    <mxGeometry x="370" y="370" width="80" height="80" as="geometry"/>
                </mxCell>
                <mxCell id="5" value="" style="edgeStyle=none;html=1;" parent="1" source="3" target="2" edge="1">
                    <mxGeometry relative="1" as="geometry"/>
                </mxCell>
                <mxCell id="3" value="Dados" style="whiteSpace=wrap;html=1;aspect=fixed;" parent="1" vertex="1">
                    <mxGeometry x="210" y="370" width="80" height="80" as="geometry"/>
                </mxCell>
                <mxCell id="6" value="Display&lt;div&gt;/&lt;/div&gt;&lt;div&gt;comand line&lt;/div&gt;" style="whiteSpace=wrap;html=1;aspect=fixed;" parent="1" vertex="1">
                    <mxGeometry x="530" y="370" width="80" height="80" as="geometry"/>
                </mxCell>
            </root>
        </mxGraphModel>
    </diagram>
    <diagram id="hCHTRhgPh8PsE8GpZZdX" name="Página-2">
        <mxGraphModel dx="1086" dy="795" grid="1" gridSize="10" guides="1" tooltips="1" connect="1" arrows="1" fold="1" page="1" pageScale="1" pageWidth="827" pageHeight="1169" math="0" shadow="0">
            <root>
                <mxCell id="0"/>
                <mxCell id="1" parent="0"/>
                <mxCell id="xRAzc71wPKBD0FDrMSmS-1" value="" style="edgeStyle=none;html=1;" parent="1" source="xRAzc71wPKBD0FDrMSmS-2" target="xRAzc71wPKBD0FDrMSmS-5" edge="1">
                    <mxGeometry relative="1" as="geometry"/>
                </mxCell>
                <mxCell id="xRAzc71wPKBD0FDrMSmS-7" value="" style="edgeStyle=none;html=1;" parent="1" source="xRAzc71wPKBD0FDrMSmS-2" target="xRAzc71wPKBD0FDrMSmS-6" edge="1">
                    <mxGeometry relative="1" as="geometry"/>
                </mxCell>
                <mxCell id="xRAzc71wPKBD0FDrMSmS-2" value="Controle&lt;div&gt;de&lt;/div&gt;&lt;div&gt;dados&lt;/div&gt;" style="whiteSpace=wrap;html=1;aspect=fixed;" parent="1" vertex="1">
                    <mxGeometry x="370" y="370" width="80" height="80" as="geometry"/>
                </mxCell>
                <mxCell id="xRAzc71wPKBD0FDrMSmS-3" value="" style="edgeStyle=none;html=1;" parent="1" source="xRAzc71wPKBD0FDrMSmS-4" target="xRAzc71wPKBD0FDrMSmS-2" edge="1">
                    <mxGeometry relative="1" as="geometry"/>
                </mxCell>
                <mxCell id="xRAzc71wPKBD0FDrMSmS-4" value="Dados" style="whiteSpace=wrap;html=1;aspect=fixed;" parent="1" vertex="1">
                    <mxGeometry x="210" y="370" width="80" height="80" as="geometry"/>
                </mxCell>
                <mxCell id="xRAzc71wPKBD0FDrMSmS-5" value="Display&lt;div&gt;/&lt;/div&gt;&lt;div&gt;comand line&lt;/div&gt;" style="whiteSpace=wrap;html=1;aspect=fixed;" parent="1" vertex="1">
                    <mxGeometry x="530" y="370" width="80" height="80" as="geometry"/>
                </mxCell>
                <mxCell id="xRAzc71wPKBD0FDrMSmS-9" value="" style="edgeStyle=orthogonalEdgeStyle;html=1;" parent="1" source="xRAzc71wPKBD0FDrMSmS-6" target="xRAzc71wPKBD0FDrMSmS-8" edge="1">
                    <mxGeometry relative="1" as="geometry"/>
                </mxCell>
                <mxCell id="xRAzc71wPKBD0FDrMSmS-12" value="" style="edgeStyle=orthogonalEdgeStyle;html=1;" parent="1" source="xRAzc71wPKBD0FDrMSmS-6" target="xRAzc71wPKBD0FDrMSmS-11" edge="1">
                    <mxGeometry relative="1" as="geometry"/>
                </mxCell>
                <mxCell id="xRAzc71wPKBD0FDrMSmS-6" value="construção" style="rhombus;whiteSpace=wrap;html=1;" parent="1" vertex="1">
                    <mxGeometry x="370" y="530" width="80" height="80" as="geometry"/>
                </mxCell>
                <mxCell id="xRAzc71wPKBD0FDrMSmS-8" value="classes" style="whiteSpace=wrap;html=1;" parent="1" vertex="1">
                    <mxGeometry x="230" y="670" width="120" height="60" as="geometry"/>
                </mxCell>
                <mxCell id="xRAzc71wPKBD0FDrMSmS-11" value="Funções" style="whiteSpace=wrap;html=1;" parent="1" vertex="1">
                    <mxGeometry x="460" y="670" width="120" height="60" as="geometry"/>
                </mxCell>
            </root>
        </mxGraphModel>
    </diagram>
    <diagram id="l8f_cEtSGSuf_mjxu8by" name="Página-3">
        <mxGraphModel dx="1086" dy="795" grid="1" gridSize="10" guides="1" tooltips="1" connect="1" arrows="1" fold="1" page="1" pageScale="1" pageWidth="827" pageHeight="1169" math="0" shadow="0">
            <root>
                <mxCell id="0"/>
                <mxCell id="1" parent="0"/>
                <mxCell id="aV4Z9_XpvjTxA2JdvLIG-1" value="" style="edgeStyle=none;html=1;" parent="1" source="aV4Z9_XpvjTxA2JdvLIG-2" target="aV4Z9_XpvjTxA2JdvLIG-5" edge="1">
                    <mxGeometry relative="1" as="geometry"/>
                </mxCell>
                <mxCell id="aV4Z9_XpvjTxA2JdvLIG-2" value="Controle&lt;div&gt;de&lt;/div&gt;&lt;div&gt;dados&lt;/div&gt;" style="whiteSpace=wrap;html=1;aspect=fixed;" parent="1" vertex="1">
                    <mxGeometry x="370" y="370" width="80" height="80" as="geometry"/>
                </mxCell>
                <mxCell id="aV4Z9_XpvjTxA2JdvLIG-3" value="" style="edgeStyle=none;html=1;" parent="1" source="aV4Z9_XpvjTxA2JdvLIG-4" target="aV4Z9_XpvjTxA2JdvLIG-2" edge="1">
                    <mxGeometry relative="1" as="geometry"/>
                </mxCell>
                <mxCell id="aV4Z9_XpvjTxA2JdvLIG-9" value="" style="edgeStyle=none;html=1;" parent="1" source="aV4Z9_XpvjTxA2JdvLIG-4" target="aV4Z9_XpvjTxA2JdvLIG-8" edge="1">
                    <mxGeometry relative="1" as="geometry"/>
                </mxCell>
                <mxCell id="aV4Z9_XpvjTxA2JdvLIG-4" value="Dados" style="whiteSpace=wrap;html=1;aspect=fixed;" parent="1" vertex="1">
                    <mxGeometry x="210" y="370" width="80" height="80" as="geometry"/>
                </mxCell>
                <mxCell id="aV4Z9_XpvjTxA2JdvLIG-5" value="Display&lt;div&gt;/&lt;/div&gt;&lt;div&gt;comand line&lt;/div&gt;" style="whiteSpace=wrap;html=1;aspect=fixed;" parent="1" vertex="1">
                    <mxGeometry x="530" y="370" width="80" height="80" as="geometry"/>
                </mxCell>
                <mxCell id="aV4Z9_XpvjTxA2JdvLIG-6" value="Dados&amp;nbsp;&lt;div&gt;json&lt;/div&gt;" style="whiteSpace=wrap;html=1;aspect=fixed;" parent="1" vertex="1">
                    <mxGeometry x="130" y="710" width="80" height="80" as="geometry"/>
                </mxCell>
                <mxCell id="aV4Z9_XpvjTxA2JdvLIG-10" style="edgeStyle=orthogonalEdgeStyle;html=1;" parent="1" source="aV4Z9_XpvjTxA2JdvLIG-8" target="aV4Z9_XpvjTxA2JdvLIG-6" edge="1">
                    <mxGeometry relative="1" as="geometry"/>
                </mxCell>
                <mxCell id="aV4Z9_XpvjTxA2JdvLIG-8" value="Compostos" style="rhombus;whiteSpace=wrap;html=1;" parent="1" vertex="1">
                    <mxGeometry x="210" y="530" width="80" height="80" as="geometry"/>
                </mxCell>
                <mxCell id="aV4Z9_XpvjTxA2JdvLIG-12" style="edgeStyle=orthogonalEdgeStyle;html=1;entryX=0.5;entryY=1;entryDx=0;entryDy=0;" parent="1" source="aV4Z9_XpvjTxA2JdvLIG-11" target="aV4Z9_XpvjTxA2JdvLIG-8" edge="1">
                    <mxGeometry relative="1" as="geometry"/>
                </mxCell>
                <mxCell id="aV4Z9_XpvjTxA2JdvLIG-11" value="Excel" style="whiteSpace=wrap;html=1;aspect=fixed;" parent="1" vertex="1">
                    <mxGeometry x="280" y="710" width="80" height="80" as="geometry"/>
                </mxCell>
            </root>
        </mxGraphModel>
    </diagram>
    <diagram id="VZwhkzdGhGAqgf5Mjtaj" name="Página-4">
        <mxGraphModel dx="1086" dy="795" grid="1" gridSize="10" guides="1" tooltips="1" connect="1" arrows="1" fold="1" page="1" pageScale="1" pageWidth="827" pageHeight="1169" math="0" shadow="0">
            <root>
                <mxCell id="0"/>
                <mxCell id="1" parent="0"/>
                <mxCell id="XI_uzRVNDPD7W593Z55z-1" value="" style="edgeStyle=none;html=1;" parent="1" source="XI_uzRVNDPD7W593Z55z-2" target="XI_uzRVNDPD7W593Z55z-5" edge="1">
                    <mxGeometry relative="1" as="geometry"/>
                </mxCell>
                <mxCell id="XI_uzRVNDPD7W593Z55z-2" value="Controle&lt;div&gt;de&lt;/div&gt;&lt;div&gt;dados&lt;/div&gt;" style="whiteSpace=wrap;html=1;aspect=fixed;" parent="1" vertex="1">
                    <mxGeometry x="370" y="370" width="80" height="80" as="geometry"/>
                </mxCell>
                <mxCell id="XI_uzRVNDPD7W593Z55z-3" value="" style="edgeStyle=none;html=1;" parent="1" source="XI_uzRVNDPD7W593Z55z-4" target="XI_uzRVNDPD7W593Z55z-2" edge="1">
                    <mxGeometry relative="1" as="geometry"/>
                </mxCell>
                <mxCell id="XI_uzRVNDPD7W593Z55z-4" value="Dados" style="whiteSpace=wrap;html=1;aspect=fixed;" parent="1" vertex="1">
                    <mxGeometry x="210" y="370" width="80" height="80" as="geometry"/>
                </mxCell>
                <mxCell id="XI_uzRVNDPD7W593Z55z-7" value="" style="edgeStyle=none;html=1;" parent="1" source="XI_uzRVNDPD7W593Z55z-5" target="XI_uzRVNDPD7W593Z55z-6" edge="1">
                    <mxGeometry relative="1" as="geometry"/>
                </mxCell>
                <mxCell id="XI_uzRVNDPD7W593Z55z-5" value="Display&lt;div&gt;/&lt;/div&gt;&lt;div&gt;comand line&lt;/div&gt;" style="whiteSpace=wrap;html=1;aspect=fixed;" parent="1" vertex="1">
                    <mxGeometry x="530" y="370" width="80" height="80" as="geometry"/>
                </mxCell>
                <mxCell id="XI_uzRVNDPD7W593Z55z-9" value="" style="edgeStyle=none;html=1;" parent="1" source="XI_uzRVNDPD7W593Z55z-6" target="XI_uzRVNDPD7W593Z55z-8" edge="1">
                    <mxGeometry relative="1" as="geometry"/>
                </mxCell>
                <mxCell id="XI_uzRVNDPD7W593Z55z-11" value="" style="edgeStyle=none;html=1;" parent="1" source="XI_uzRVNDPD7W593Z55z-6" target="XI_uzRVNDPD7W593Z55z-10" edge="1">
                    <mxGeometry relative="1" as="geometry"/>
                </mxCell>
                <mxCell id="XI_uzRVNDPD7W593Z55z-6" value="Composto" style="rhombus;whiteSpace=wrap;html=1;" parent="1" vertex="1">
                    <mxGeometry x="530" y="530" width="80" height="80" as="geometry"/>
                </mxCell>
                <mxCell id="XI_uzRVNDPD7W593Z55z-8" value="terminal" style="whiteSpace=wrap;html=1;" parent="1" vertex="1">
                    <mxGeometry x="670" y="540" width="120" height="60" as="geometry"/>
                </mxCell>
                <mxCell id="XI_uzRVNDPD7W593Z55z-10" value="Biblioteca de GUI" style="whiteSpace=wrap;html=1;" parent="1" vertex="1">
                    <mxGeometry x="350" y="540" width="120" height="60" as="geometry"/>
                </mxCell>
            </root>
        </mxGraphModel>
    </diagram>
    <diagram id="wnoTcZ8WizNk8yMkDkbt" name="Página-5">
        <mxGraphModel dx="1086" dy="795" grid="1" gridSize="10" guides="1" tooltips="1" connect="1" arrows="1" fold="1" page="1" pageScale="1" pageWidth="827" pageHeight="1169" math="0" shadow="0">
            <root>
                <mxCell id="0"/>
                <mxCell id="1" parent="0"/>
                <mxCell id="jN2ut1qOPrfxESMH89C7-1" value="" style="edgeStyle=none;html=1;" parent="1" source="jN2ut1qOPrfxESMH89C7-2" target="jN2ut1qOPrfxESMH89C7-5" edge="1">
                    <mxGeometry relative="1" as="geometry"/>
                </mxCell>
                <mxCell id="jN2ut1qOPrfxESMH89C7-9" value="" style="edgeStyle=none;html=1;" parent="1" source="jN2ut1qOPrfxESMH89C7-2" target="jN2ut1qOPrfxESMH89C7-8" edge="1">
                    <mxGeometry relative="1" as="geometry"/>
                </mxCell>
                <mxCell id="jN2ut1qOPrfxESMH89C7-2" value="Controle&lt;div&gt;de&lt;/div&gt;&lt;div&gt;dados&lt;/div&gt;" style="whiteSpace=wrap;html=1;aspect=fixed;" parent="1" vertex="1">
                    <mxGeometry x="370" y="370" width="80" height="80" as="geometry"/>
                </mxCell>
                <mxCell id="jN2ut1qOPrfxESMH89C7-3" value="" style="edgeStyle=none;html=1;" parent="1" source="jN2ut1qOPrfxESMH89C7-4" target="jN2ut1qOPrfxESMH89C7-2" edge="1">
                    <mxGeometry relative="1" as="geometry"/>
                </mxCell>
                <mxCell id="jN2ut1qOPrfxESMH89C7-7" value="" style="edgeStyle=none;html=1;" parent="1" source="jN2ut1qOPrfxESMH89C7-4" target="jN2ut1qOPrfxESMH89C7-6" edge="1">
                    <mxGeometry relative="1" as="geometry"/>
                </mxCell>
                <mxCell id="jN2ut1qOPrfxESMH89C7-4" value="Dados" style="whiteSpace=wrap;html=1;aspect=fixed;" parent="1" vertex="1">
                    <mxGeometry x="210" y="370" width="80" height="80" as="geometry"/>
                </mxCell>
                <mxCell id="jN2ut1qOPrfxESMH89C7-17" value="" style="edgeStyle=orthogonalEdgeStyle;html=1;" parent="1" source="jN2ut1qOPrfxESMH89C7-5" target="jN2ut1qOPrfxESMH89C7-16" edge="1">
                    <mxGeometry relative="1" as="geometry"/>
                </mxCell>
                <mxCell id="jN2ut1qOPrfxESMH89C7-5" value="Display&lt;div&gt;/&lt;/div&gt;&lt;div&gt;comand line&lt;/div&gt;" style="whiteSpace=wrap;html=1;aspect=fixed;" parent="1" vertex="1">
                    <mxGeometry x="530" y="370" width="80" height="80" as="geometry"/>
                </mxCell>
                <mxCell id="jN2ut1qOPrfxESMH89C7-6" value="DB" style="whiteSpace=wrap;html=1;aspect=fixed;" parent="1" vertex="1">
                    <mxGeometry x="210" y="530" width="80" height="80" as="geometry"/>
                </mxCell>
                <mxCell id="jN2ut1qOPrfxESMH89C7-11" value="" style="edgeStyle=none;html=1;" parent="1" source="jN2ut1qOPrfxESMH89C7-8" target="jN2ut1qOPrfxESMH89C7-10" edge="1">
                    <mxGeometry relative="1" as="geometry"/>
                </mxCell>
                <mxCell id="jN2ut1qOPrfxESMH89C7-8" value="Melhoria no&lt;div&gt;codigo&lt;/div&gt;" style="whiteSpace=wrap;html=1;aspect=fixed;" parent="1" vertex="1">
                    <mxGeometry x="370" y="530" width="80" height="80" as="geometry"/>
                </mxCell>
                <mxCell id="jN2ut1qOPrfxESMH89C7-13" value="" style="edgeStyle=none;html=1;" parent="1" source="jN2ut1qOPrfxESMH89C7-10" target="jN2ut1qOPrfxESMH89C7-12" edge="1">
                    <mxGeometry relative="1" as="geometry"/>
                </mxCell>
                <mxCell id="jN2ut1qOPrfxESMH89C7-10" value="Expansão de recursos" style="whiteSpace=wrap;html=1;aspect=fixed;" parent="1" vertex="1">
                    <mxGeometry x="370" y="690" width="80" height="80" as="geometry"/>
                </mxCell>
                <mxCell id="jN2ut1qOPrfxESMH89C7-15" value="" style="edgeStyle=none;html=1;" parent="1" source="jN2ut1qOPrfxESMH89C7-12" target="jN2ut1qOPrfxESMH89C7-14" edge="1">
                    <mxGeometry relative="1" as="geometry"/>
                </mxCell>
                <mxCell id="jN2ut1qOPrfxESMH89C7-12" value="Uso de blibiotecas" style="whiteSpace=wrap;html=1;aspect=fixed;" parent="1" vertex="1">
                    <mxGeometry x="370" y="850" width="80" height="80" as="geometry"/>
                </mxCell>
                <mxCell id="jN2ut1qOPrfxESMH89C7-14" value="Melhoria na arquitetura" style="whiteSpace=wrap;html=1;aspect=fixed;" parent="1" vertex="1">
                    <mxGeometry x="370" y="1010" width="80" height="80" as="geometry"/>
                </mxCell>
                <mxCell id="jN2ut1qOPrfxESMH89C7-19" value="" style="html=1;edgeStyle=orthogonalEdgeStyle;" parent="1" source="jN2ut1qOPrfxESMH89C7-16" target="jN2ut1qOPrfxESMH89C7-18" edge="1">
                    <mxGeometry relative="1" as="geometry"/>
                </mxCell>
                <mxCell id="jN2ut1qOPrfxESMH89C7-21" value="" style="html=1;edgeStyle=orthogonalEdgeStyle;" parent="1" source="jN2ut1qOPrfxESMH89C7-16" target="jN2ut1qOPrfxESMH89C7-20" edge="1">
                    <mxGeometry relative="1" as="geometry"/>
                </mxCell>
                <mxCell id="jN2ut1qOPrfxESMH89C7-16" value="Melhorado com" style="rhombus;whiteSpace=wrap;html=1;" parent="1" vertex="1">
                    <mxGeometry x="590" y="520" width="80" height="80" as="geometry"/>
                </mxCell>
                <mxCell id="jN2ut1qOPrfxESMH89C7-18" value="Site" style="whiteSpace=wrap;html=1;" parent="1" vertex="1">
                    <mxGeometry x="700" y="690" width="120" height="60" as="geometry"/>
                </mxCell>
                <mxCell id="jN2ut1qOPrfxESMH89C7-20" value="App" style="whiteSpace=wrap;html=1;" parent="1" vertex="1">
                    <mxGeometry x="480" y="690" width="120" height="60" as="geometry"/>
                </mxCell>
            </root>
        </mxGraphModel>
    </diagram>
</mxfile>